<?xml version="1.0" standalone="no"?><!DOCTYPE svg PUBLIC "-//W3C//DTD SVG 1.1//EN" "http://www.w3.org/Graphics/SVG/1.1/DTD/svg11.dtd"><svg t="1698225302695" class="icon" viewBox="0 0 1024 1024" version="1.1" xmlns="http://www.w3.org/2000/svg" p-id="2346" xmlns:xlink="http://www.w3.org/1999/xlink" width="200" height="200"><path d="M512 177.8c45.1 0 88.9 8.8 130.1 26.2 39.8 16.8 75.5 40.9 106.2 71.6 30.7 30.7 54.8 66.4 71.6 106.2 17.4 41.2 26.2 84.9 26.2 130.1s-8.8 88.9-26.2 130.1c-16.8 39.8-40.9 75.5-71.6 106.2-30.7 30.7-66.4 54.8-106.2 71.6C600.9 837.2 557.2 846 512 846s-88.9-8.8-130.1-26.2c-39.8-16.8-75.5-40.9-106.2-71.6-30.7-30.7-54.8-66.4-71.6-106.2-17.4-41.2-26.2-84.9-26.2-130.1s8.8-88.9 26.2-130.1c16.8-39.8 40.9-75.5 71.6-106.2 30.7-30.7 66.4-54.8 106.2-71.6 41.2-17.3 85-26.2 130.1-26.2m0-50c-212.2 0-384.2 172-384.2 384.2s172 384.2 384.2 384.2 384.2-172 384.2-384.2-172-384.2-384.2-384.2z" p-id="2347" data-spm-anchor-id="a313x.search_index.0.i0.5a123a81sMESgX" class="selected" fill="#8a8a8a"></path><path d="M738.7 399.6c-15.5-20.5-44.7-24.4-65.2-8.9l-237 183.4-71.8-80.4c-16.5-19.7-45.8-22.4-65.5-5.9-19.7 16.5-22.4 45.8-5.9 65.5L391 665.8c10.2 12.2 25.2 17.8 39.9 16.5 10.3 0.3 20.8-2.7 29.6-9.5l269.4-208.1c20.3-15.5 24.3-44.7 8.8-65.1z" p-id="2348" data-spm-anchor-id="a313x.search_index.0.i1.5a123a81sMESgX" class="selected" fill="#8a8a8a"></path></svg>